<?xml version="1.0" standalone="no"?>
<!DOCTYPE svg PUBLIC "-//W3C//DTD SVG 20010904//EN"
 "http://www.w3.org/TR/2001/REC-SVG-20010904/DTD/svg10.dtd">
<svg version="1.0" xmlns="http://www.w3.org/2000/svg"
 width="225.000000pt" height="225.000000pt" viewBox="0 0 225.000000 225.000000"
 preserveAspectRatio="xMidYMid meet">

<g transform="translate(0.000000,225.000000) scale(0.100000,-0.100000)"
fill="#000000" stroke="none">
<path d="M704 1860 c-185 -27 -297 -205 -335 -531 -14 -127 -7 -371 16 -487
41 -214 131 -374 238 -429 48 -24 64 -26 218 -31 113 -3 177 -1 202 7 63 21
141 124 177 234 9 30 16 37 29 31 34 -15 80 -15 108 0 17 8 67 52 112 97 62
62 86 80 102 76 13 -3 19 -1 16 6 -7 22 -42 17 -86 -12 -25 -17 -48 -28 -53
-25 -15 10 23 64 63 91 23 15 36 29 30 31 -19 6 -55 -6 -76 -25 -58 -53 -76
-62 -99 -52 -30 14 -59 64 -51 89 13 41 47 52 133 45 87 -8 97 -5 171 52 50
37 39 44 -18 11 -41 -23 -75 -19 -69 9 3 18 113 85 178 109 28 10 32 14 17 19
-10 4 -39 -2 -69 -14 -60 -25 -86 -27 -95 -6 -8 23 3 29 45 27 28 -2 49 5 78
24 21 15 57 35 79 45 40 18 40 19 10 19 -16 0 -43 -9 -59 -19 -30 -20 -46 -19
-46 3 0 6 14 16 32 21 17 6 34 17 36 25 4 12 3 13 -10 2 -9 -7 -27 -10 -45 -6
-38 8 -75 -24 -168 -141 -91 -114 -160 -145 -194 -84 -18 32 -9 67 25 109 21
24 33 30 57 28 17 -2 32 -8 34 -15 6 -18 -34 -53 -62 -53 -28 0 -35 -19 -7
-21 52 -4 99 27 151 101 45 63 72 90 109 107 26 11 26 11 4 12 -35 1 -73 -22
-110 -68 -18 -23 -39 -41 -47 -41 -74 0 84 130 177 145 27 5 46 2 63 -9 28
-18 71 -21 80 -5 4 6 17 14 29 19 16 7 12 8 -19 7 -30 -2 -40 2 -43 16 -3 14
4 17 40 18 24 0 52 4 63 9 17 7 16 9 -10 9 -16 1 -48 8 -72 17 -23 9 -49 14
-58 10 -14 -5 -14 -8 1 -31 22 -34 9 -48 -35 -35 -51 14 -97 -1 -224 -74 -64
-36 -124 -66 -134 -66 -42 0 -56 47 -27 88 14 20 23 23 82 21 43 -2 82 3 107
13 43 18 37 25 -25 30 -25 2 -36 8 -38 22 -7 32 12 37 69 18 30 -11 70 -22 90
-26 39 -7 89 7 89 24 0 6 -5 8 -10 5 -15 -9 -40 13 -40 35 0 14 11 18 60 22
72 5 99 23 37 24 -23 0 -65 4 -93 9 -36 5 -58 4 -75 -6 l-24 -13 25 -6 c32 -8
39 -44 11 -59 -22 -12 -36 -8 -104 33 -58 34 -116 39 -146 12 -28 -26 -26 -33
7 -28 49 7 83 -57 38 -74 -22 -9 -86 23 -95 48 -17 45 35 128 81 128 10 0 39
-9 63 -20 49 -22 74 -20 138 12 21 10 56 21 78 23 23 2 43 6 46 9 11 11 -107
17 -143 7 -31 -9 -41 -8 -53 4 -12 11 -12 17 -1 30 10 12 25 14 64 10 l51 -5
-45 15 c-81 27 -135 15 -203 -45 -60 -52 -117 -37 -117 31 0 41 19 49 108 47
55 -2 85 1 93 10 10 10 6 12 -22 12 -38 0 -79 23 -79 46 0 11 16 14 69 14 40
0 73 5 77 11 4 7 0 9 -14 5 -12 -4 -45 3 -83 19 -95 38 -163 31 -213 -23 l-18
-21 -24 29 c-48 56 -96 70 -240 69 -71 -1 -152 -5 -180 -9z m4 -72 c32 35 32
35 12 5 -95 -144 -148 -423 -137 -726 8 -248 52 -444 125 -566 l33 -56 -33 31
c-29 27 -118 70 -118 57 0 -2 14 -25 32 -51 l32 -47 -40 35 c-22 19 -49 40
-60 47 -18 11 -18 11 3 6 l23 -5 -22 44 c-12 25 -37 56 -55 68 -18 13 -31 25
-28 28 2 3 11 -1 20 -8 9 -7 18 -11 21 -8 6 7 -18 98 -26 98 -3 0 -21 14 -40
31 l-35 31 39 -23 c36 -21 38 -21 33 -3 -3 10 -9 40 -12 66 -6 36 -16 57 -46
88 -49 52 -51 76 -3 29 l37 -34 -6 64 c-4 48 -11 70 -29 90 -44 48 -53 66 -15
32 l37 -35 0 61 c0 43 -5 64 -16 74 -8 7 -22 26 -30 43 l-15 31 29 -35 30 -34
7 48 c5 32 4 55 -4 65 -18 27 -52 91 -47 91 3 0 17 -17 30 -37 27 -40 30 -37
40 35 5 31 1 52 -14 82 -26 52 -25 64 2 21 l22 -34 13 49 c11 41 10 55 -2 89
l-16 40 20 -24 19 -25 17 39 c9 22 13 50 10 62 -4 17 -2 21 9 17 10 -4 21 6
32 27 9 18 26 41 38 50 21 17 21 17 35 -21 l15 -39 34 37z m183 13 c-12 -16
-21 -32 -21 -35 0 -4 23 5 51 20 72 36 72 24 -1 -15 -58 -31 -90 -62 -90 -88
0 -9 10 -7 33 7 54 33 55 22 1 -14 -31 -21 -54 -45 -58 -60 -3 -13 -9 -32 -13
-42 -6 -16 -4 -16 23 2 55 39 59 36 12 -8 -31 -28 -49 -55 -53 -77 l-7 -34 30
22 c48 34 51 24 5 -17 -35 -32 -42 -44 -47 -90 l-7 -54 38 28 38 28 -36 -40
c-28 -29 -38 -51 -43 -87 l-6 -48 38 28 37 27 -37 -40 c-33 -35 -38 -46 -38
-89 l0 -49 28 27 c43 41 49 32 11 -15 -32 -40 -34 -47 -29 -102 5 -58 5 -58
24 -37 31 34 39 24 12 -12 -27 -35 -30 -55 -19 -120 l6 -38 30 28 30 28 -27
-41 c-25 -39 -26 -44 -15 -88 6 -25 14 -46 17 -46 3 0 17 10 30 23 l25 22 -12
-22 c-6 -12 -16 -25 -21 -28 -15 -9 -12 -39 6 -86 l17 -41 24 29 24 28 -16
-32 c-19 -41 -19 -52 2 -75 9 -10 14 -21 10 -24 -3 -3 -22 20 -43 51 l-38 56
-25 -26 c-22 -22 -24 -28 -13 -45 23 -37 12 -34 -18 6 -122 160 -179 587 -125
922 29 173 92 340 148 389 20 17 20 17 -2 -19 -12 -21 -20 -38 -17 -38 13 0
125 60 131 70 3 5 8 10 11 10 3 0 -4 -13 -15 -29z m81 -94 c-80 -85 -132 -405
-112 -684 15 -214 52 -365 112 -459 16 -27 23 -42 14 -34 -76 62 -133 282
-143 550 -8 233 20 441 77 562 20 44 54 88 67 88 4 0 -3 -10 -15 -23z m132
-28 c21 -18 43 -52 56 -87 24 -65 53 -182 46 -189 -2 -3 -10 22 -16 54 -22
102 -81 214 -114 213 -6 0 -3 -5 7 -11 9 -6 29 -33 43 -61 115 -226 103 -795
-20 -973 -16 -24 -17 -27 -2 -16 27 22 54 82 81 179 17 58 23 72 19 42 -15
-121 -78 -252 -130 -271 -94 -34 -178 192 -188 509 -9 279 40 530 120 610 40
40 54 40 98 1z"/>
<path d="M612 1779 c-10 -16 -11 -28 -1 -57 17 -54 21 -57 35 -31 17 30 17 51
2 84 -14 30 -19 31 -36 4z"/>
<path d="M570 1691 c-12 -36 -11 -45 5 -81 10 -22 21 -40 24 -40 3 0 11 17 18
37 10 32 9 43 -11 81 l-22 44 -14 -41z"/>
<path d="M532 1578 c-10 -39 -9 -47 15 -88 l27 -45 12 45 c10 40 9 49 -9 80
-31 54 -33 54 -45 8z"/>
<path d="M505 1452 c-6 -48 -4 -57 21 -95 l28 -42 9 44 c10 52 5 77 -27 116
l-24 29 -7 -52z"/>
<path d="M487 1319 c-4 -49 -2 -58 27 -96 l31 -41 6 51 c6 53 3 63 -39 116
l-19 24 -6 -54z"/>
<path d="M480 1180 c0 -48 4 -60 35 -95 l34 -40 0 55 c0 48 -4 60 -34 95 l-35
40 0 -55z"/>
<path d="M480 1042 c0 -48 4 -57 40 -95 l39 -42 1 53 c0 48 -4 57 -40 95 l-39
42 -1 -53z"/>
<path d="M494 895 c6 -54 11 -64 48 -98 22 -20 42 -36 43 -35 2 2 -2 29 -8 60
-8 46 -18 64 -50 95 l-39 38 6 -60z"/>
<path d="M510 785 c0 -3 5 -25 11 -49 8 -33 19 -48 52 -69 22 -15 42 -26 43
-24 1 1 -2 22 -8 47 -8 36 -19 51 -47 70 -43 30 -51 34 -51 25z"/>
<path d="M558 613 c14 -40 25 -52 62 -70 25 -12 46 -20 48 -19 1 2 -6 22 -17
46 -13 29 -32 49 -61 66 -23 13 -44 24 -46 24 -2 0 4 -21 14 -47z"/>
<path d="M793 1743 c-44 -23 -83 -66 -70 -79 10 -10 99 51 113 77 8 16 13 29
12 28 -2 0 -26 -12 -55 -26z"/>
<path d="M757 1655 c-49 -28 -54 -34 -62 -73 l-7 -32 45 27 c29 18 49 40 57
61 6 19 10 35 8 36 -1 2 -20 -7 -41 -19z"/>
<path d="M723 1549 c-40 -28 -60 -63 -51 -89 2 -6 19 1 40 15 25 17 40 37 47
62 6 20 9 38 8 39 -1 1 -21 -11 -44 -27z"/>
<path d="M699 1445 c-33 -25 -45 -52 -48 -107 l-1 -28 39 28 c33 23 40 34 45
76 4 26 5 50 3 52 -2 2 -19 -8 -38 -21z"/>
<path d="M689 1316 c-35 -24 -49 -55 -49 -108 0 -18 4 -16 39 11 33 27 40 38
43 76 2 25 3 45 3 45 0 0 -17 -11 -36 -24z"/>
<path d="M672 1191 c-30 -26 -33 -33 -30 -74 l3 -46 31 29 c24 21 33 39 37 74
3 25 3 46 -1 46 -4 -1 -22 -14 -40 -29z"/>
<path d="M674 1067 c-28 -29 -30 -37 -26 -89 l4 -57 34 27 c31 24 34 32 34 77
0 72 -10 81 -46 42z"/>
<path d="M686 921 c-26 -28 -28 -34 -23 -82 4 -28 9 -54 12 -57 3 -3 18 7 35
23 26 25 29 32 23 74 -9 70 -15 76 -47 42z"/>
<path d="M706 779 c-15 -17 -25 -38 -22 -45 3 -7 8 -29 12 -48 3 -20 8 -36 9
-36 2 0 16 13 32 28 26 27 27 31 18 74 -5 26 -13 49 -16 53 -4 3 -19 -8 -33
-26z"/>
<path d="M742 657 c-26 -28 -27 -51 -4 -95 l18 -33 26 28 27 28 -17 48 c-9 26
-19 47 -23 47 -3 0 -15 -10 -27 -23z"/>
<path d="M997 1593 c-23 -26 -54 -101 -61 -148 -4 -26 -3 -33 2 -21 7 16 14 5
37 -57 45 -124 50 -117 61 81 6 122 13 149 29 121 4 -6 1 -71 -5 -145 -7 -74
-11 -137 -8 -139 3 -3 13 34 22 82 10 49 20 97 23 108 5 18 6 18 15 -4 6 -17
1 -51 -17 -116 -39 -143 -33 -185 27 -185 22 0 28 -5 28 -20 0 -19 -4 -20 -36
-14 -43 8 -40 -7 7 -31 18 -10 29 -23 29 -36 l0 -21 -34 21 c-18 12 -36 21
-40 21 -12 0 -5 -48 20 -134 14 -48 24 -102 22 -120 -2 -25 -8 -14 -26 54 -13
47 -27 89 -32 93 -7 8 8 -88 30 -187 5 -24 5 -48 -2 -65 -9 -22 -14 -8 -32
108 -13 81 -26 136 -33 138 -7 3 -26 -23 -45 -61 -17 -36 -35 -63 -40 -60 -17
11 -7 61 22 109 39 66 38 76 -4 36 l-34 -33 -6 23 c-3 13 -3 -7 -1 -46 9 -132
56 -267 102 -288 23 -10 28 -8 54 20 63 71 95 261 86 522 -6 181 -25 284 -68
362 -28 50 -64 63 -92 32z"/>
<path d="M916 1355 c-13 -95 -19 -301 -9 -319 9 -16 13 -14 46 17 28 26 37 43
37 66 0 39 -24 87 -50 101 -15 8 -20 21 -20 48 l1 37 34 -40 c42 -48 45 -33 9
38 -15 29 -30 63 -34 77 -5 21 -8 17 -14 -25z"/>
<path d="M1031 1221 c-14 -25 -12 -173 2 -187 11 -11 27 16 27 46 0 19 -3 22
-9 11 -8 -12 -11 -9 -16 12 -9 33 2 80 15 72 12 -7 12 21 1 50 -8 19 -8 19
-20 -4z"/>
</g>
</svg>
